<?xml version="1.0" encoding="UTF-8" ?>
<!DOCTYPE svg PUBLIC "-//W3C//DTD SVG 1.1//EN" "http://www.w3.org/Graphics/SVG/1.1/DTD/svg11.dtd">
<svg width="440pt" height="130pt" viewBox="0 0 440 130" version="1.1" xmlns="http://www.w3.org/2000/svg">
<g id="#ffffffff">
</g>
<g id="#386abbff">
<path fill="#386abb" opacity="1.00" d=" M 123.44 9.48 C 127.72 7.99 133.56 9.00 135.38 13.64 C 138.49 21.02 136.35 29.26 137.08 37.02 C 139.11 37.07 141.15 37.23 143.19 37.05 C 146.39 36.67 149.57 36.10 152.75 35.60 C 152.94 30.63 153.27 25.67 153.68 20.72 C 159.12 17.07 165.38 15.02 171.25 12.20 C 174.66 10.68 178.09 8.54 181.98 8.89 C 186.51 8.86 190.46 12.71 190.79 17.19 C 191.40 23.65 190.73 30.16 191.08 36.65 C 195.12 37.42 200.05 37.68 202.71 41.30 C 204.78 44.77 203.83 49.03 203.98 52.86 C 212.78 48.44 221.33 42.75 231.27 41.34 C 235.05 41.16 238.83 41.60 242.58 42.04 C 241.40 36.99 240.99 31.80 241.35 26.63 C 246.66 22.16 253.72 21.04 260.20 19.17 C 271.14 16.52 282.63 13.61 293.89 16.14 C 301.52 17.25 308.70 21.54 312.94 28.03 C 316.44 33.58 318.05 40.00 320.28 46.11 C 325.75 44.56 331.29 43.16 337.00 42.89 C 340.75 42.80 343.14 38.84 346.97 39.01 C 354.99 38.94 363.01 38.96 371.03 39.01 C 376.09 38.51 378.51 45.54 383.73 43.89 C 386.84 42.31 389.14 38.76 392.98 39.00 C 401.32 38.97 409.67 38.93 418.02 39.02 C 423.38 38.99 427.29 44.63 426.69 49.65 C 425.60 54.54 421.64 57.93 418.84 61.85 C 414.87 67.20 410.41 72.21 406.64 77.71 C 404.94 79.85 407.39 81.80 408.53 83.49 C 412.63 88.42 416.45 93.57 420.33 98.68 C 422.83 101.91 425.38 106.25 423.41 110.37 C 421.52 114.75 416.57 116.43 412.19 116.94 C 405.04 117.01 397.78 117.57 390.70 116.33 C 387.13 115.76 384.77 112.83 382.43 110.36 C 379.77 112.63 376.99 114.81 373.82 116.32 C 372.65 116.69 371.42 116.88 370.21 116.96 C 363.59 117.03 356.94 117.41 350.35 116.64 C 346.23 116.27 343.41 112.87 339.73 111.43 C 336.82 111.10 333.90 111.72 331.00 111.90 C 324.64 112.52 318.05 111.53 312.29 108.71 C 309.09 107.16 306.61 104.49 303.51 102.78 C 299.92 102.96 296.99 105.65 293.83 107.13 C 292.36 107.91 290.84 108.65 289.19 108.95 C 282.43 109.55 275.80 111.04 269.13 112.22 C 265.01 113.05 260.20 111.86 257.81 108.18 C 256.32 105.44 256.16 102.23 255.62 99.22 C 252.41 101.90 249.15 104.54 245.58 106.73 C 242.58 108.46 239.46 110.04 236.17 111.13 C 229.82 112.29 222.98 112.69 216.93 110.03 C 214.37 109.07 211.98 107.47 209.24 107.10 C 205.86 107.80 202.99 109.93 199.93 111.43 C 198.72 112.06 197.49 112.67 196.17 113.04 C 188.78 113.35 181.03 113.84 174.01 111.02 C 168.78 108.98 164.64 105.06 160.62 101.28 C 158.02 103.56 155.47 105.89 152.72 107.99 C 149.44 110.09 145.81 111.63 142.17 113.01 C 136.86 113.18 131.52 113.28 126.24 112.70 C 120.76 112.06 116.05 108.96 111.43 106.20 C 110.89 109.49 110.35 112.81 109.15 115.94 C 106.76 118.20 103.49 119.27 100.23 119.09 C 94.19 118.93 88.13 119.33 82.10 118.85 C 78.64 118.62 74.81 116.88 73.72 113.33 C 72.79 109.97 72.92 106.44 72.74 102.98 C 69.47 104.63 66.21 106.31 62.87 107.81 C 61.97 108.22 61.04 108.55 60.09 108.82 C 52.77 109.48 45.64 111.37 38.35 112.23 C 34.56 112.62 29.77 111.82 28.01 107.98 C 25.92 102.82 26.05 97.12 25.34 91.68 C 24.46 83.82 23.56 75.95 22.94 68.07 C 22.82 61.60 16.65 57.70 15.38 51.60 C 13.48 43.43 10.48 35.23 11.56 26.71 C 14.27 24.95 16.93 22.99 20.09 22.09 C 29.75 19.24 39.50 16.43 49.57 15.47 C 55.47 14.36 61.44 15.43 67.15 16.97 C 73.23 18.86 78.06 13.28 83.41 11.45 C 90.91 9.49 99.17 12.04 104.40 17.74 C 110.97 15.50 116.89 11.76 123.44 9.48 M 107.32 26.23 C 108.02 32.93 109.13 40.02 106.54 46.45 C 105.46 50.55 106.04 54.85 105.93 59.04 C 105.64 62.85 108.00 66.18 107.99 69.94 C 108.09 76.61 108.58 83.33 110.16 89.83 C 111.23 94.17 114.47 97.53 118.13 99.88 C 124.63 104.60 133.62 106.75 141.16 103.29 C 146.92 102.05 152.82 98.72 154.96 92.94 C 157.45 85.28 155.90 76.93 152.63 69.74 C 151.51 70.45 150.40 71.16 149.28 71.87 C 145.75 74.14 141.92 75.98 138.65 78.63 C 136.43 80.47 137.23 84.30 134.63 85.82 C 132.33 86.21 129.08 86.70 127.75 84.23 C 125.19 78.15 125.96 71.38 127.22 65.09 C 130.48 65.03 133.74 64.98 137.00 64.94 C 138.31 64.96 139.63 64.99 140.95 65.02 C 141.07 58.69 141.06 52.37 140.95 46.04 C 136.65 46.02 132.34 45.98 128.04 45.96 C 127.87 36.64 128.14 27.32 127.95 18.00 C 127.22 18.01 125.78 18.02 125.05 18.02 C 119.24 20.98 113.13 23.28 107.32 26.23 M 177.27 18.28 L 177.22 19.15 C 172.13 21.42 166.93 23.44 162.01 26.08 C 161.95 32.38 162.05 38.67 161.97 44.97 C 156.93 44.99 151.89 44.99 146.85 45.07 C 147.63 51.74 148.78 58.36 150.15 64.93 C 154.05 64.98 157.96 65.02 161.87 65.04 C 162.21 72.75 162.77 80.49 163.82 88.14 C 164.98 96.43 172.96 101.29 180.23 103.76 C 183.96 104.58 188.29 106.10 191.86 104.01 C 198.45 103.81 205.24 100.34 208.28 94.32 C 210.90 86.33 211.00 77.08 206.84 69.56 C 205.21 70.64 203.57 71.71 201.92 72.77 C 198.50 75.05 195.00 77.23 191.53 79.44 C 190.86 81.64 190.89 84.56 188.62 85.82 C 186.04 86.40 182.52 86.50 181.28 83.63 C 180.53 77.47 181.14 71.23 181.04 65.04 C 184.71 65.00 188.37 64.99 192.04 65.02 C 193.25 64.89 194.47 64.76 195.69 64.62 C 196.23 58.52 196.21 52.39 195.69 46.29 C 191.15 45.97 186.59 45.91 182.04 45.97 C 181.85 36.61 182.17 27.26 181.92 17.90 C 180.37 18.03 178.81 18.15 177.27 18.28 M 82.69 21.25 C 79.58 25.08 78.95 30.59 80.93 35.07 C 83.36 39.28 88.76 39.73 93.09 40.33 L 93.35 39.49 C 98.07 37.27 100.94 31.44 99.73 26.38 C 97.08 20.16 88.34 17.14 82.69 21.25 M 45.86 24.79 C 37.97 26.16 30.12 27.91 22.57 30.58 C 21.27 30.89 20.50 31.97 19.73 32.95 C 22.39 39.85 22.18 47.64 25.93 54.14 C 27.25 53.09 28.56 52.04 29.88 50.98 C 30.69 61.98 32.37 72.88 33.26 83.87 C 34.11 90.39 34.47 96.97 35.54 103.46 C 38.24 103.95 40.94 102.96 43.59 102.58 C 51.67 100.80 60.54 100.56 67.44 95.45 C 75.15 89.92 80.96 80.89 81.21 71.25 C 82.57 67.64 81.90 63.75 82.00 60.00 C 82.04 53.92 82.43 47.63 80.13 41.86 C 78.02 36.52 75.72 30.50 70.37 27.61 C 62.99 23.42 54.02 23.29 45.86 24.79 M 268.98 25.99 C 262.20 27.72 255.28 29.14 248.85 31.98 C 249.14 32.45 249.72 33.40 250.02 33.87 C 251.51 40.12 252.10 46.63 254.42 52.65 C 255.68 55.74 257.69 51.68 259.61 51.44 C 261.19 69.01 263.16 86.54 265.24 104.06 C 273.96 101.90 283.12 101.61 291.62 98.61 C 297.84 95.69 304.34 91.20 306.14 84.16 C 312.36 73.83 312.77 61.07 311.58 49.39 C 309.70 41.32 307.62 31.58 299.62 27.37 C 290.18 22.27 279.02 23.82 268.98 25.99 M 88.06 49.10 C 88.02 60.04 88.29 71.10 85.86 81.83 C 84.88 85.84 82.45 89.29 81.26 93.22 C 80.23 98.79 81.64 104.40 82.23 109.94 C 87.17 110.06 92.12 110.07 97.06 109.97 C 99.08 109.97 101.09 109.97 103.11 109.98 C 101.65 102.05 102.12 93.99 101.91 85.99 C 100.93 77.90 100.40 69.69 101.56 61.59 C 102.23 57.20 102.16 52.74 101.70 48.33 C 99.50 48.15 97.29 47.97 95.08 47.79 C 92.74 48.19 90.40 48.65 88.06 49.10 M 348.77 47.99 C 353.42 50.04 358.31 53.04 359.98 58.14 C 359.90 60.29 358.86 62.23 358.12 64.21 C 362.06 69.30 366.52 74.03 369.89 79.56 C 365.52 84.68 361.40 90.00 357.44 95.44 C 354.48 99.57 350.82 103.22 348.59 107.84 C 356.50 107.82 364.56 108.70 372.38 107.47 C 375.85 103.70 378.28 99.07 381.97 95.47 C 385.36 98.98 387.97 103.15 391.26 106.75 C 392.35 108.23 394.34 107.89 395.95 108.04 C 400.66 108.11 405.36 107.96 410.07 108.01 C 411.83 107.98 413.59 107.96 415.36 107.91 C 412.55 101.96 407.86 97.22 404.16 91.85 C 401.29 87.70 397.50 84.19 395.06 79.76 C 394.88 76.26 398.60 74.07 400.33 71.32 C 406.17 63.48 412.79 56.22 418.18 48.05 C 409.56 47.97 400.93 47.89 392.30 48.09 C 391.85 49.04 391.39 49.99 390.95 50.93 C 387.65 54.65 385.32 59.19 381.50 62.44 C 378.22 57.75 375.27 52.76 371.36 48.56 C 363.93 47.26 356.28 48.32 348.77 47.99 M 218.76 55.72 C 214.48 57.91 211.46 61.90 208.83 65.81 C 216.41 74.93 215.68 87.84 213.92 98.85 C 217.89 101.20 222.25 103.31 226.99 103.10 C 231.77 102.98 237.26 102.50 240.87 99.02 C 248.16 95.03 254.24 88.11 255.81 79.78 C 257.76 73.48 256.85 66.66 254.30 60.67 C 251.56 55.33 245.87 52.22 240.26 50.72 C 232.82 48.62 224.68 50.96 218.76 55.72 M 317.86 58.04 C 318.24 57.98 319.00 57.87 319.38 57.82 C 317.80 68.22 316.59 78.98 311.30 88.31 C 310.56 90.48 308.07 92.97 309.67 95.22 C 312.69 100.60 319.10 102.86 324.97 103.02 C 335.95 103.76 347.86 101.17 356.16 93.59 C 357.05 92.18 357.98 90.78 358.95 89.42 C 355.22 84.80 351.80 79.89 347.34 75.92 C 345.25 78.63 343.12 81.30 340.92 83.92 C 338.90 84.66 336.90 85.45 334.89 86.19 C 340.08 79.36 345.88 73.03 351.18 66.29 C 353.04 64.29 354.73 62.12 356.33 59.90 C 354.34 57.79 352.41 55.46 349.64 54.37 C 339.41 49.99 326.75 51.17 317.86 58.04 Z" />
<path fill="#386abb" opacity="1.00" d=" M 50.41 42.51 C 54.07 43.09 58.74 42.42 61.26 45.76 C 63.52 49.40 62.93 53.91 63.07 58.00 C 62.94 62.79 63.60 67.91 61.35 72.34 C 59.20 76.60 54.99 79.20 50.84 81.22 C 52.04 68.28 48.78 55.43 50.41 42.51 M 53.81 47.66 C 53.96 48.91 54.19 50.15 54.51 51.37 C 53.57 59.00 53.97 66.73 54.20 74.40 C 56.77 71.11 58.83 67.32 59.50 63.15 C 60.99 57.51 60.45 49.59 53.81 47.66 Z" />
<path fill="#386abb" opacity="1.00" d=" M 279.43 43.47 C 282.95 42.63 287.29 42.27 290.24 44.76 C 292.35 47.68 292.73 51.48 293.01 54.98 C 293.21 61.17 293.41 67.77 290.38 73.39 C 288.48 77.10 284.58 78.99 281.18 81.05 C 279.79 74.79 278.47 68.45 278.83 62.00 C 279.17 55.83 278.14 49.55 279.43 43.47 M 282.92 46.61 C 283.08 48.15 282.86 49.81 283.49 51.27 C 282.61 59.32 282.90 67.46 283.26 75.53 C 287.92 71.52 289.78 65.12 290.15 59.18 C 290.15 54.08 288.03 48.55 282.92 46.61 Z" />
<path fill="#386abb" opacity="1.00" d=" M 225.49 68.08 C 228.03 65.41 230.60 62.76 233.49 60.47 C 233.55 63.94 231.72 68.65 235.37 70.89 C 238.87 71.69 241.51 68.56 244.26 66.96 C 243.66 69.34 243.18 71.77 242.12 74.00 C 240.22 75.58 238.35 77.52 235.85 78.06 C 232.69 78.36 229.61 76.73 227.46 74.52 C 226.21 72.61 226.07 70.23 225.49 68.08 Z" />
<path fill="#386abb" opacity="1.00" d=" M 325.30 67.30 C 328.31 65.01 332.18 66.16 335.43 67.17 C 333.35 73.62 327.66 77.75 322.99 82.28 C 319.45 77.64 321.03 70.86 325.30 67.30 M 326.60 71.09 L 325.77 70.86 C 324.84 73.24 324.09 75.69 323.77 78.24 C 326.16 76.47 328.27 74.35 330.16 72.05 C 331.45 71.46 331.73 69.95 332.37 68.84 C 330.22 68.94 327.99 69.25 326.60 71.09 Z" />
</g>
<g id="#ffcc03ff">
<path fill="#ffcc03" opacity="1.00" d=" M 107.32 26.23 C 113.13 23.28 119.24 20.98 125.05 18.02 C 125.36 27.96 124.00 38.02 125.92 47.86 C 129.58 47.94 133.23 48.06 136.89 48.19 C 137.06 53.77 137.10 59.35 137.00 64.94 C 133.74 64.98 130.48 65.03 127.22 65.09 C 125.96 71.38 125.19 78.15 127.75 84.23 C 129.08 86.70 132.33 86.21 134.63 85.82 C 137.23 84.30 136.43 80.47 138.65 78.63 C 141.92 75.98 145.75 74.14 149.28 71.87 C 153.15 82.79 150.39 95.91 141.16 103.29 C 133.62 106.75 124.63 104.60 118.13 99.88 C 114.47 97.53 111.23 94.17 110.16 89.83 C 108.58 83.33 108.09 76.61 107.99 69.94 C 108.00 66.18 105.64 62.85 105.93 59.04 C 106.04 54.85 105.46 50.55 106.54 46.45 C 109.13 40.02 108.02 32.93 107.32 26.23 Z" />
<path fill="#ffcc03" opacity="1.00" d=" M 162.01 26.08 C 166.93 23.44 172.13 21.42 177.22 19.15 C 176.37 29.40 177.56 39.65 178.27 49.86 C 182.81 49.95 187.34 50.05 191.88 50.14 C 192.04 55.09 192.11 60.06 192.04 65.02 C 188.37 64.99 184.71 65.00 181.04 65.04 C 181.14 71.23 180.53 77.47 181.28 83.63 C 182.52 86.50 186.04 86.40 188.62 85.82 C 190.89 84.56 190.86 81.64 191.53 79.44 C 195.00 77.23 198.50 75.05 201.92 72.77 C 203.89 79.11 205.09 86.10 202.55 92.48 C 200.93 97.76 196.22 101.08 191.86 104.01 C 188.29 106.10 183.96 104.58 180.23 103.76 C 172.96 101.29 164.98 96.43 163.82 88.14 C 162.77 80.49 162.21 72.75 161.87 65.04 C 157.96 65.02 154.05 64.98 150.15 64.93 C 148.78 58.36 147.63 51.74 146.85 45.07 C 151.89 44.99 156.93 44.99 161.97 44.97 C 162.05 38.67 161.95 32.38 162.01 26.08 Z" />
<path fill="#ffcc03" opacity="1.00" d=" M 80.93 35.07 C 78.95 30.59 79.58 25.08 82.69 21.25 C 86.55 22.18 91.61 22.29 93.59 26.42 C 96.07 30.47 94.73 35.32 93.35 39.49 L 93.09 40.33 C 88.76 39.73 83.36 39.28 80.93 35.07 Z" />
<path fill="#ffcc03" opacity="1.00" d=" M 19.73 32.95 C 32.79 30.75 46.27 25.26 59.52 29.49 C 68.46 32.65 75.72 39.99 79.31 48.72 C 82.08 55.89 80.88 63.74 81.21 71.25 C 80.96 80.89 75.15 89.92 67.44 95.45 C 60.54 100.56 51.67 100.80 43.59 102.58 C 40.94 102.96 38.24 103.95 35.54 103.46 C 34.47 96.97 34.11 90.39 33.26 83.87 C 32.37 72.88 30.69 61.98 29.88 50.98 C 28.56 52.04 27.25 53.09 25.93 54.14 C 22.18 47.64 22.39 39.85 19.73 32.95 M 48.04 61.04 C 48.76 68.14 48.94 75.35 50.78 82.29 L 50.84 81.22 C 54.99 79.20 59.20 76.60 61.35 72.34 C 63.60 67.91 62.94 62.79 63.07 58.00 C 62.93 53.91 63.52 49.40 61.26 45.76 C 58.74 42.42 54.07 43.09 50.41 42.51 C 47.24 48.13 47.93 54.84 48.04 61.04 Z" />
<path fill="#ffcc03" opacity="1.00" d=" M 250.02 33.87 C 260.67 30.89 271.71 28.32 282.85 29.13 C 289.40 29.68 296.70 31.59 300.53 37.42 C 304.50 43.66 306.58 50.93 307.86 58.16 C 309.46 66.83 307.85 75.64 306.14 84.16 C 304.34 91.20 297.84 95.69 291.62 98.61 C 283.12 101.61 273.96 101.90 265.24 104.06 C 263.16 86.54 261.19 69.01 259.61 51.44 C 257.69 51.68 255.68 55.74 254.42 52.65 C 252.10 46.63 251.51 40.12 250.02 33.87 M 279.43 43.47 C 278.14 49.55 279.17 55.83 278.83 62.00 C 278.47 68.45 279.79 74.79 281.18 81.05 C 284.58 78.99 288.48 77.10 290.38 73.39 C 293.41 67.77 293.21 61.17 293.01 54.98 C 292.73 51.48 292.35 47.68 290.24 44.76 C 287.29 42.27 282.95 42.63 279.43 43.47 Z" />
<path fill="#ffcc03" opacity="1.00" d=" M 88.06 49.10 C 90.40 48.65 92.74 48.19 95.08 47.79 C 96.72 58.45 95.82 69.26 95.96 80.00 C 95.59 90.02 97.40 99.95 97.06 109.97 C 92.12 110.07 87.17 110.06 82.23 109.94 C 81.64 104.40 80.23 98.79 81.26 93.22 C 82.45 89.29 84.88 85.84 85.86 81.83 C 88.29 71.10 88.02 60.04 88.06 49.10 Z" />
<path fill="#ffcc03" opacity="1.00" d=" M 348.77 47.99 C 356.28 48.32 363.93 47.26 371.36 48.56 C 375.27 52.76 378.22 57.75 381.50 62.44 C 385.32 59.19 387.65 54.65 390.95 50.93 C 397.66 51.03 404.38 50.87 411.09 51.07 C 405.46 59.01 398.30 65.70 392.55 73.54 C 391.24 75.57 389.46 77.99 390.36 80.54 C 391.51 83.77 393.83 86.39 395.90 89.05 C 400.91 95.16 405.30 101.73 410.07 108.01 C 405.36 107.96 400.66 108.11 395.95 108.04 C 394.34 107.89 392.35 108.23 391.26 106.75 C 387.97 103.15 385.36 98.98 381.97 95.47 C 378.28 99.07 375.85 103.70 372.38 107.47 C 364.56 108.70 356.50 107.82 348.59 107.84 C 350.82 103.22 354.48 99.57 357.44 95.44 C 361.40 90.00 365.52 84.68 369.89 79.56 C 366.52 74.03 362.06 69.30 358.12 64.21 C 358.86 62.23 359.90 60.29 359.98 58.14 C 358.31 53.04 353.42 50.04 348.77 47.99 Z" />
<path fill="#ffcc03" opacity="1.00" d=" M 218.76 55.72 C 226.56 54.69 235.54 53.67 242.18 58.85 C 249.17 64.06 251.11 73.55 249.77 81.77 C 248.99 88.42 244.67 93.79 240.87 99.02 C 237.26 102.50 231.77 102.98 226.99 103.10 C 222.25 103.31 217.89 101.20 213.92 98.85 C 215.68 87.84 216.41 74.93 208.83 65.81 C 211.46 61.90 214.48 57.91 218.76 55.72 M 225.49 68.08 C 224.43 70.42 223.27 73.02 224.30 75.61 C 225.74 80.87 232.63 82.48 237.03 80.02 C 239.50 78.80 240.82 76.29 242.12 74.00 C 243.18 71.77 243.66 69.34 244.26 66.96 C 241.51 68.56 238.87 71.69 235.37 70.89 C 231.72 68.65 233.55 63.94 233.49 60.47 C 230.60 62.76 228.03 65.41 225.49 68.08 Z" />
<path fill="#ffcc03" opacity="1.00" d=" M 319.38 57.82 C 325.64 56.76 332.06 54.72 338.40 56.60 C 343.93 57.73 347.76 62.15 351.18 66.29 C 345.88 73.03 340.08 79.36 334.89 86.19 C 336.90 85.45 338.90 84.66 340.92 83.92 C 342.54 83.33 344.17 82.74 345.79 82.16 C 349.15 86.05 352.56 89.91 356.16 93.59 C 347.86 101.17 335.95 103.76 324.97 103.02 C 319.10 102.86 312.69 100.60 309.67 95.22 C 308.07 92.97 310.56 90.48 311.30 88.31 C 316.59 78.98 317.80 68.22 319.38 57.82 M 325.30 67.30 C 321.03 70.86 319.45 77.64 322.99 82.28 C 327.66 77.75 333.35 73.62 335.43 67.17 C 332.18 66.16 328.31 65.01 325.30 67.30 Z" />
</g>
<g id="#dbad00ff">
<path fill="#dbad00" opacity="1.00" d=" M 125.05 18.02 C 125.78 18.02 127.22 18.01 127.95 18.00 C 128.14 27.32 127.87 36.64 128.04 45.96 C 132.34 45.98 136.65 46.02 140.95 46.04 C 141.06 52.37 141.07 58.69 140.95 65.02 C 139.63 64.99 138.31 64.96 137.00 64.94 C 137.10 59.35 137.06 53.77 136.89 48.19 C 133.23 48.06 129.58 47.94 125.92 47.86 C 124.00 38.02 125.36 27.96 125.05 18.02 Z" />
<path fill="#dbad00" opacity="1.00" d=" M 177.27 18.28 C 178.81 18.15 180.37 18.03 181.92 17.90 C 182.17 27.26 181.85 36.61 182.04 45.97 C 186.59 45.91 191.15 45.97 195.69 46.29 C 196.21 52.39 196.23 58.52 195.69 64.62 C 194.47 64.76 193.25 64.89 192.04 65.02 C 192.11 60.06 192.04 55.09 191.88 50.14 C 187.34 50.05 182.81 49.95 178.27 49.86 C 177.56 39.65 176.37 29.40 177.22 19.15 L 177.27 18.28 Z" />
<path fill="#dbad00" opacity="1.00" d=" M 82.69 21.25 C 88.34 17.14 97.08 20.16 99.73 26.38 C 100.94 31.44 98.07 37.27 93.35 39.49 C 94.73 35.32 96.07 30.47 93.59 26.42 C 91.61 22.29 86.55 22.18 82.69 21.25 Z" />
<path fill="#dbad00" opacity="1.00" d=" M 45.86 24.79 C 54.02 23.29 62.99 23.42 70.37 27.61 C 75.72 30.50 78.02 36.52 80.13 41.86 C 82.43 47.63 82.04 53.92 82.00 60.00 C 81.90 63.75 82.57 67.64 81.21 71.25 C 80.88 63.74 82.08 55.89 79.31 48.72 C 75.72 39.99 68.46 32.65 59.52 29.49 C 46.27 25.26 32.79 30.75 19.73 32.95 C 20.50 31.97 21.27 30.89 22.57 30.58 C 30.12 27.91 37.97 26.16 45.86 24.79 Z" />
<path fill="#dbad00" opacity="1.00" d=" M 268.98 25.99 C 279.02 23.82 290.18 22.27 299.62 27.37 C 307.62 31.58 309.70 41.32 311.58 49.39 C 312.77 61.07 312.36 73.83 306.14 84.16 C 307.85 75.64 309.46 66.83 307.86 58.16 C 306.58 50.93 304.50 43.66 300.53 37.42 C 296.70 31.59 289.40 29.68 282.85 29.13 C 271.71 28.32 260.67 30.89 250.02 33.87 C 249.72 33.40 249.14 32.45 248.85 31.98 C 255.28 29.14 262.20 27.72 268.98 25.99 Z" />
<path fill="#dbad00" opacity="1.00" d=" M 48.04 61.04 C 47.93 54.84 47.24 48.13 50.41 42.51 C 48.78 55.43 52.04 68.28 50.84 81.22 L 50.78 82.29 C 48.94 75.35 48.76 68.14 48.04 61.04 Z" />
<path fill="#dbad00" opacity="1.00" d=" M 95.08 47.79 C 97.29 47.97 99.50 48.15 101.70 48.33 C 102.16 52.74 102.23 57.20 101.56 61.59 C 100.40 69.69 100.93 77.90 101.91 85.99 C 102.12 93.99 101.65 102.05 103.11 109.98 C 101.09 109.97 99.08 109.97 97.06 109.97 C 97.40 99.95 95.59 90.02 95.96 80.00 C 95.82 69.26 96.72 58.45 95.08 47.79 Z" />
<path fill="#dbad00" opacity="1.00" d=" M 392.30 48.09 C 400.93 47.89 409.56 47.97 418.18 48.05 C 412.79 56.22 406.17 63.48 400.33 71.32 C 398.60 74.07 394.88 76.26 395.06 79.76 C 397.50 84.19 401.29 87.70 404.16 91.85 C 407.86 97.22 412.55 101.96 415.36 107.91 C 413.59 107.96 411.83 107.98 410.07 108.01 C 405.30 101.73 400.91 95.16 395.90 89.05 C 393.83 86.39 391.51 83.77 390.36 80.54 C 389.46 77.99 391.24 75.57 392.55 73.54 C 398.30 65.70 405.46 59.01 411.09 51.07 C 404.38 50.87 397.66 51.03 390.95 50.93 C 391.39 49.99 391.85 49.04 392.30 48.09 Z" />
<path fill="#dbad00" opacity="1.00" d=" M 218.76 55.72 C 224.68 50.96 232.82 48.62 240.26 50.72 C 245.87 52.22 251.56 55.33 254.30 60.67 C 256.85 66.66 257.76 73.48 255.81 79.78 C 254.24 88.11 248.16 95.03 240.87 99.02 C 244.67 93.79 248.99 88.42 249.77 81.77 C 251.11 73.55 249.17 64.06 242.18 58.85 C 235.54 53.67 226.56 54.69 218.76 55.72 Z" />
<path fill="#dbad00" opacity="1.00" d=" M 317.86 58.04 C 326.75 51.17 339.41 49.99 349.64 54.37 C 352.41 55.46 354.34 57.79 356.33 59.90 C 354.73 62.12 353.04 64.29 351.18 66.29 C 347.76 62.15 343.93 57.73 338.40 56.60 C 332.06 54.72 325.64 56.76 319.38 57.82 C 319.00 57.87 318.24 57.98 317.86 58.04 Z" />
<path fill="#dbad00" opacity="1.00" d=" M 224.30 75.61 C 223.27 73.02 224.43 70.42 225.49 68.08 C 226.07 70.23 226.21 72.61 227.46 74.52 C 229.61 76.73 232.69 78.36 235.85 78.06 C 238.35 77.52 240.22 75.58 242.12 74.00 C 240.82 76.29 239.50 78.80 237.03 80.02 C 232.63 82.48 225.74 80.87 224.30 75.61 Z" />
<path fill="#dbad00" opacity="1.00" d=" M 149.28 71.87 C 150.40 71.16 151.51 70.45 152.63 69.74 C 155.90 76.93 157.45 85.28 154.96 92.94 C 152.82 98.72 146.92 102.05 141.16 103.29 C 150.39 95.91 153.15 82.79 149.28 71.87 Z" />
<path fill="#dbad00" opacity="1.00" d=" M 201.92 72.77 C 203.57 71.71 205.21 70.64 206.84 69.56 C 211.00 77.08 210.90 86.33 208.28 94.32 C 205.24 100.34 198.45 103.81 191.86 104.01 C 196.22 101.08 200.93 97.76 202.55 92.48 C 205.09 86.10 203.89 79.11 201.92 72.77 Z" />
<path fill="#dbad00" opacity="1.00" d=" M 347.34 75.92 C 351.80 79.89 355.22 84.80 358.95 89.42 C 357.98 90.78 357.05 92.18 356.16 93.59 C 352.56 89.91 349.15 86.05 345.79 82.16 C 344.17 82.74 342.54 83.33 340.92 83.92 C 343.12 81.30 345.25 78.63 347.34 75.92 Z" />
</g>
<g id="#295190ff">
<path fill="#295190" opacity="1.00" d=" M 144.74 25.74 C 146.87 22.86 150.53 22.01 153.68 20.72 C 153.27 25.67 152.94 30.63 152.75 35.60 C 149.57 36.10 146.39 36.67 143.19 37.05 C 143.07 33.28 142.11 28.92 144.74 25.74 Z" />
<path fill="#295190" opacity="1.00" d=" M 2.35 32.34 C 4.30 28.99 7.97 27.54 11.56 26.71 C 10.48 35.23 13.48 43.43 15.38 51.60 C 16.65 57.70 22.82 61.60 22.94 68.07 C 23.56 75.95 24.46 83.82 25.34 91.68 C 26.05 97.12 25.92 102.82 28.01 107.98 C 29.77 111.82 34.56 112.62 38.35 112.23 C 45.64 111.37 52.77 109.48 60.09 108.82 C 53.88 114.06 45.28 113.96 37.73 115.71 C 32.24 116.45 26.27 118.73 20.97 116.05 C 16.86 114.01 16.81 108.82 16.19 104.88 C 15.34 95.55 14.10 86.27 13.20 76.95 C 12.86 73.76 13.13 70.33 11.66 67.37 C 9.82 64.85 7.36 62.69 6.37 59.63 C 4.35 53.91 3.43 47.89 1.93 42.03 C 1.19 38.87 0.08 35.16 2.35 32.34 Z" />
<path fill="#295190" opacity="1.00" d=" M 232.30 31.31 C 234.37 28.37 238.23 27.87 241.35 26.63 C 240.99 31.80 241.40 36.99 242.58 42.04 C 238.83 41.60 235.05 41.16 231.27 41.34 C 231.10 38.01 230.24 34.25 232.30 31.31 Z" />
<path fill="#295190" opacity="1.00" d=" M 245.58 106.73 C 249.15 104.54 252.41 101.90 255.62 99.22 C 256.16 102.23 256.32 105.44 257.81 108.18 C 260.20 111.86 265.01 113.05 269.13 112.22 C 275.80 111.04 282.43 109.55 289.19 108.95 C 282.61 114.24 273.79 114.17 265.92 115.93 C 261.03 116.66 255.59 118.96 250.98 116.04 C 247.35 114.35 246.39 110.27 245.58 106.73 Z" />
<path fill="#295190" opacity="1.00" d=" M 152.72 107.99 C 155.47 105.89 158.02 103.56 160.62 101.28 C 164.64 105.06 168.78 108.98 174.01 111.02 C 181.03 113.84 188.78 113.35 196.17 113.04 C 188.47 118.54 178.43 119.04 169.37 117.61 C 163.00 116.31 156.95 112.97 152.72 107.99 Z" />
<path fill="#295190" opacity="1.00" d=" M 293.83 107.13 C 296.99 105.65 299.92 102.96 303.51 102.78 C 306.61 104.49 309.09 107.16 312.29 108.71 C 318.05 111.53 324.64 112.52 331.00 111.90 C 333.90 111.72 336.82 111.10 339.73 111.43 C 343.41 112.87 346.23 116.27 350.35 116.64 C 356.94 117.41 363.59 117.03 370.21 116.96 C 368.89 118.42 367.61 120.09 365.63 120.63 C 358.97 122.85 351.84 121.84 344.97 122.02 C 339.57 122.16 333.88 120.59 330.73 115.89 C 322.26 117.16 313.29 118.16 305.11 114.88 C 300.71 113.40 296.66 110.86 293.83 107.13 Z" />
<path fill="#295190" opacity="1.00" d=" M 62.87 107.81 C 66.21 106.31 69.47 104.63 72.74 102.98 C 72.92 106.44 72.79 109.97 73.72 113.33 C 74.81 116.88 78.64 118.62 82.10 118.85 C 88.13 119.33 94.19 118.93 100.23 119.09 C 98.28 121.25 96.16 123.90 92.96 123.92 C 87.30 124.22 81.63 123.92 75.97 124.05 C 72.22 124.05 67.80 123.93 65.18 120.80 C 61.96 117.28 63.15 112.14 62.87 107.81 Z" />
<path fill="#295190" opacity="1.00" d=" M 111.43 106.20 C 116.05 108.96 120.76 112.06 126.24 112.70 C 131.52 113.28 136.86 113.18 142.17 113.01 C 132.65 119.68 119.83 119.21 109.15 115.94 C 110.35 112.81 110.89 109.49 111.43 106.20 Z" />
<path fill="#295190" opacity="1.00" d=" M 209.24 107.10 C 211.98 107.47 214.37 109.07 216.93 110.03 C 222.98 112.69 229.82 112.29 236.17 111.13 C 225.62 118.48 210.38 119.37 199.93 111.43 C 202.99 109.93 205.86 107.80 209.24 107.10 Z" />
<path fill="#295190" opacity="1.00" d=" M 373.82 116.32 C 376.99 114.81 379.77 112.63 382.43 110.36 C 384.77 112.83 387.13 115.76 390.70 116.33 C 397.78 117.57 405.04 117.01 412.19 116.94 C 410.90 118.41 409.62 120.10 407.63 120.63 C 400.65 122.90 393.18 121.83 385.97 121.99 C 381.55 121.64 375.61 121.20 373.82 116.32 Z" />
</g>
<g id="#a38fafff">
<path fill="#a38faf" opacity="1.00" d=" M 282.92 46.61 C 288.03 48.55 290.15 54.08 290.15 59.18 C 288.34 56.22 285.87 53.76 283.49 51.27 C 282.86 49.81 283.08 48.15 282.92 46.61 Z" />
<path fill="#a38faf" opacity="1.00" d=" M 53.81 47.66 C 60.45 49.59 60.99 57.51 59.50 63.15 C 58.93 58.83 56.84 54.98 54.51 51.37 C 54.19 50.15 53.96 48.91 53.81 47.66 Z" />
<path fill="#a38faf" opacity="1.00" d=" M 326.60 71.09 C 327.99 69.25 330.22 68.94 332.37 68.84 C 331.73 69.95 331.45 71.46 330.16 72.05 C 328.97 71.75 327.78 71.43 326.60 71.09 Z" />
</g>
</svg>
