<?xml version="1.0" encoding="UTF-8" ?>
<!DOCTYPE svg PUBLIC "-//W3C//DTD SVG 1.1//EN" "http://www.w3.org/Graphics/SVG/1.1/DTD/svg11.dtd">
<svg width="60pt" height="53pt" viewBox="0 0 60 53" version="1.1" xmlns="http://www.w3.org/2000/svg">
<g id="#f1f5ffff">
</g>
<g id="#2f4fcdff">
<path fill="#2f4fcd" opacity="1.00" d=" M 16.22 10.20 C 20.94 8.38 26.32 13.62 24.27 18.36 C 22.73 23.31 15.06 24.00 12.70 19.39 C 10.37 16.08 12.53 11.31 16.22 10.20 Z" />
<path fill="#2f4fcd" opacity="1.00" d=" M 32.22 14.10 C 36.96 12.83 42.13 13.60 47.04 13.59 C 49.92 13.68 50.01 18.71 47.00 18.87 C 42.66 19.17 38.28 19.09 33.93 18.90 C 31.46 19.12 30.31 15.54 32.22 14.10 Z" />
<path fill="#2f4fcd" opacity="1.00" d=" M 39.37 31.51 C 43.10 28.98 48.76 31.48 49.21 36.02 C 50.15 41.07 43.77 45.21 39.49 42.35 C 35.49 40.13 35.30 33.75 39.37 31.51 Z" />
<path fill="#2f4fcd" opacity="1.00" d=" M 13.40 34.49 C 17.88 33.87 22.46 34.10 26.96 34.25 C 30.04 33.82 30.82 39.13 27.69 39.56 C 23.19 39.90 18.63 39.83 14.13 39.57 C 11.49 39.64 10.77 35.24 13.40 34.49 Z" />
</g>
</svg>
